<svg version="1.1" preserveAspectRatio="none" xmlns="http://www.w3.org/2000/svg" width="500" height="500" viewBox="0 0 500 500"><rect width="100%" height="100%" fill="#FFFFFF" fill-opacity="1"/><svg viewBox="191.759 234.4933 500.288 70" width="417" height="58.34639247793271" x="41.5px" y="220.8268px" xmlns="http://www.w3.org/2000/svg" xmlns:xlink="http://www.w3.org/1999/xlink" preserveAspectRatio="none"><defs></defs>
              <style>.companyName {fill:#270949;fill-opacity:1;}.icon1 {fill:#4654A3;fill-opacity:1;}.icon2 {fill:#F95B3D;fill-opacity:1;}.icon3 {fill:#FEB7C7;fill-opacity:1;}.text {fill:#270949;fill-opacity:1;}</style><g opacity="1" transform="rotate(0 191.759 234.4933)">
<svg width="90.0305" height="70" x="191.759" y="234.4933" version="1.1" preserveAspectRatio="none" viewBox="2.9761409759521484 13.433500289916992 94.0591049194336 73.13229370117188">
  <g transform="matrix(1 0 0 1 0 0)" class="icon1"><path d="m97.027 74.449c-0.019532-0.77344-0.28906-1.5781-0.73438-2.2031l-14.508-20.504c-1.0938-1.5781-2.8984-2.5234-4.8242-2.5234h-12.594c3.3125-4.332 5.9414-9.6211 5.9414-15.504 0-11.184-9.1016-20.281-20.281-20.281-11.184 0-20.281 9.0977-20.281 20.281 0 5.8828 2.6289 11.172 5.9414 15.504h-12.586c-1.9102 0-3.7148 0.9375-4.832 2.5078 0 0-14.5 20.52-14.504 20.527-0.23438 0.33203-0.37109 0.72266-0.50391 1.1055-0.13281 0.38281-0.28516 0.77734-0.28516 1.1875v6.9609c0 2.7891 2.2695 5.0586 5.0625 5.0586h83.938c2.7891 0 5.0586-2.2695 5.0586-5.0586v-6.9648-0.097657zm-47-57.016c8.9766 0 16.281 7.3047 16.281 16.281 0 11.406-12.539 20.844-16.285 23.406-3.7422-2.5547-16.281-11.969-16.281-23.406 0-8.9766 7.3047-16.281 16.281-16.281zm-28.496 36.605c0.36328-0.51562 0.95312-0.82031 1.5703-0.82031h16.055c4.6836 4.8164 9.4414 7.7656 9.832 8 0.32031 0.19531 0.67969 0.29297 1.0391 0.29297s0.71875-0.097657 1.0391-0.29297c0.39062-0.23828 5.1484-3.1875 9.832-8h16.059c0.60547 0 1.1953 0.30469 1.5469 0.81641l14.512 20.523h-52.059c-0.71875 0-1.3828 0.38672-1.7422 1.0156-0.67578 1.1914-2.7227 1.1914-3.3984 0-0.35547-0.625-1.0195-1.0156-1.7422-1.0156l-27.047-0.007813 14.5-20.516zm70.438 28.527h-83.938c-0.58594 0-1.0625-0.47656-1.0625-1.0586v-2.957c0.023438 0 0.042969 0.007813 0.070312 0.007813h26.027c1.1133 1.2422 2.7266 1.9766 4.4531 1.9766 1.7227 0 3.3398-0.73438 4.4531-1.9766h51.047 0.007813v2.9492c0 0.58594-0.47656 1.0586-1.0586 1.0586zm-66.047-24.434c0.15625 0.10938 0.19531 0.32813 0.085937 0.48438l-2.3086 3.2656c-0.070313 0.097657-0.17578 0.14844-0.28516 0.14844-0.070312 0-0.14062-0.019531-0.20312-0.0625-0.15625-0.10938-0.19531-0.32812-0.085938-0.48438l2.3086-3.2656c0.11328-0.16016 0.33203-0.19531 0.48438-0.085938zm-5.7734 8.1719c0.15625 0.10937 0.19531 0.32812 0.085937 0.48437l-2.3086 3.2656c-0.070312 0.097656-0.17578 0.14844-0.28516 0.14844-0.070313 0-0.14062-0.019531-0.20312-0.0625-0.15625-0.10938-0.19531-0.32812-0.085938-0.48438l2.3086-3.2656c0.10938-0.16016 0.33594-0.19531 0.48438-0.085937zm29.879-23.328c5.1094 0 9.2656-4.1562 9.2656-9.2617 0-5.1094-4.1562-9.2617-9.2656-9.2617s-9.2617 4.1562-9.2617 9.2617c0 5.1094 4.1562 9.2617 9.2617 9.2617zm0-14.523c2.9023 0 5.2656 2.3594 5.2656 5.2617s-2.3594 5.2617-5.2656 5.2617c-2.8984 0-5.2617-2.3594-5.2617-5.2617s2.3594-5.2617 5.2617-5.2617z"></path></g>
</svg>
</g><g opacity="1" transform="rotate(0 301.7895 316.4933)">
<svg width="0" height="0" x="301.7895" y="316.4933" version="1.1" preserveAspectRatio="none" viewBox="0 0 0 0">
  <g transform="matrix(1 0 0 1 0 0)" class="text"></g>
</svg>
</g><g opacity="1" transform="rotate(0 301.7895 234.4933)">
<svg width="390.2575" height="70" x="301.7895" y="234.4933" version="1.1" preserveAspectRatio="none" viewBox="3.32 -28.48 161.44000000000003 28.96">
  <g transform="matrix(1 0 0 1 0 0)" class="companyName"><path id="id-D6z1nYkh6" d="M28.12 0L21.16 0L15.76-7.80L15.44-7.80L9.80-7.80L9.80 0L3.32 0L3.32-28L15.44-28Q19.16-28 21.90-26.76Q24.64-25.52 26.12-23.24Q27.60-20.96 27.60-17.84L27.60-17.84Q27.60-14.72 26.10-12.46Q24.60-10.20 21.84-9L21.84-9L28.12 0ZM21.04-17.84Q21.04-20.20 19.52-21.46Q18-22.72 15.08-22.72L15.08-22.72L9.80-22.72L9.80-12.96L15.08-12.96Q18-12.96 19.52-14.24Q21.04-15.52 21.04-17.84L21.04-17.84Z M32.72 0L32.72-28L39.20-28L39.20 0L32.72 0Z M45.84 0L45.84-28L58.56-28Q63.12-28 66.62-26.26Q70.12-24.52 72.06-21.36Q74-18.20 74-14L74-14Q74-9.80 72.06-6.64Q70.12-3.48 66.62-1.74Q63.12 0 58.56 0L58.56 0L45.84 0ZM52.32-5.32L58.24-5.32Q62.44-5.32 64.94-7.66Q67.44-10 67.44-14L67.44-14Q67.44-18 64.94-20.34Q62.44-22.68 58.24-22.68L58.24-22.68L52.32-22.68L52.32-5.32Z M92.44 0.48Q88.08 0.48 84.58-1.40Q81.08-3.28 79.10-6.58Q77.12-9.88 77.12-14L77.12-14Q77.12-18.12 79.10-21.42Q81.08-24.72 84.58-26.60Q88.08-28.48 92.44-28.48L92.44-28.48Q96.80-28.48 100.28-26.60Q103.76-24.72 105.76-21.42Q107.76-18.12 107.76-14L107.76-14Q107.76-9.88 105.76-6.58Q103.76-3.28 100.28-1.40Q96.80 0.48 92.44 0.48L92.44 0.48ZM92.44-5.04Q94.92-5.04 96.92-6.18Q98.92-7.32 100.06-9.36Q101.20-11.40 101.20-14L101.20-14Q101.20-16.60 100.06-18.64Q98.92-20.68 96.92-21.82Q94.92-22.96 92.44-22.96L92.44-22.96Q89.96-22.96 87.96-21.82Q85.96-20.68 84.82-18.64Q83.68-16.60 83.68-14L83.68-14Q83.68-11.40 84.82-9.36Q85.96-7.32 87.96-6.18Q89.96-5.04 92.44-5.04L92.44-5.04Z M112.64 0L112.64-28L119.12-28L119.12-5.28L133.16-5.28L133.16 0L112.64 0Z M157.96 0L155.48-6L142.48-6L140 0L133.36 0L145.84-28L152.24-28L164.76 0L157.96 0ZM144.56-10.92L153.44-10.92L149-21.64L144.56-10.92Z"/></g>
</svg>
</g></svg></svg>